<svg xmlns="http://www.w3.org/2000/svg" viewBox="0 0 1400 900" width="1400" height="900" role="img" aria-label="Placeholder for the room map editor screenshot.">
  <defs>
    <linearGradient id="surface" x1="0%" y1="0%" x2="100%" y2="100%">
      <stop offset="0%" stop-color="#0f1114"/>
      <stop offset="100%" stop-color="#1e2229"/>
    </linearGradient>
    <radialGradient id="glow" cx="70%" cy="30%" r="70%">
      <stop offset="0%" stop-color="#ffb020" stop-opacity="0.14"/>
      <stop offset="70%" stop-color="#ffb020" stop-opacity="0"/>
    </radialGradient>
  </defs>
  <rect width="1400" height="900" fill="url(#surface)"/>
  <rect width="1400" height="900" fill="url(#glow)"/>
  <rect x="0" y="0" width="12" height="900" fill="#ffb020"/>
  <g opacity="0.35" stroke="rgba(231,236,242,0.14)" stroke-width="1" fill="none">
    <g>
      <line x1="120" y1="120" x2="1280" y2="120"/>
      <line x1="120" y1="220" x2="1280" y2="220"/>
      <line x1="120" y1="320" x2="1280" y2="320"/>
      <line x1="120" y1="420" x2="1280" y2="420"/>
      <line x1="120" y1="520" x2="1280" y2="520"/>
      <line x1="120" y1="620" x2="1280" y2="620"/>
      <line x1="120" y1="720" x2="1280" y2="720"/>
    </g>
    <g>
      <line x1="220" y1="90" x2="220" y2="780"/>
      <line x1="400" y1="90" x2="400" y2="780"/>
      <line x1="580" y1="90" x2="580" y2="780"/>
      <line x1="760" y1="90" x2="760" y2="780"/>
      <line x1="940" y1="90" x2="940" y2="780"/>
      <line x1="1120" y1="90" x2="1120" y2="780"/>
    </g>
  </g>
  <g transform="translate(700, 450)">
    <rect x="-200" y="-24" width="400" height="48" rx="24" fill="rgba(10,11,14,0.75)" stroke="rgba(231,236,242,0.16)" stroke-width="1"/>
    <circle cx="-170" cy="0" r="4" fill="#ffb020"/>
    <text x="0" y="5" font-family="IBM Plex Mono, ui-monospace, monospace" font-size="16" letter-spacing="1.2" fill="#a8b0bc" text-anchor="middle">room-map-editor · 1400 × 900</text>
  </g>
</svg>
